<svg xmlns="http://www.w3.org/2000/svg" viewBox="0 0 200 200" width="100%" height="100%">
  <defs>
    <linearGradient id="bg-grad" x1="0%" y1="0%" x2="100%" y2="100%">
      <stop offset="0%" stop-color="#050914" />
      <stop offset="100%" stop-color="#121A2F" />
    </linearGradient>
    
    <linearGradient id="neon-grad" x1="0%" y1="0%" x2="100%" y2="100%">
      <stop offset="0%" stop-color="#00f2fe" />
      <stop offset="100%" stop-color="#667eea" />
    </linearGradient>

    <filter id="neon-glow" x="-50%" y="-50%" width="200%" height="200%">
      <feGaussianBlur stdDeviation="6" result="coloredBlur"/>
      <feMerge>
        <feMergeNode in="coloredBlur"/>
        <feMergeNode in="SourceGraphic"/>
      </feMerge>
    </filter>
  </defs>

  <rect width="200" height="200" rx="40" fill="url(#bg-grad)" />

  <g filter="url(#neon-glow)">
    <path d="M 82.5 60 L 57.5 60 
             A 20 20 0 0 0 37.5 80 
             A 20 20 0 0 0 57.5 100 
             L 67.5 100 
             A 20 20 0 0 1 87.5 120 
             A 20 20 0 0 1 67.5 140 
             L 42.5 140 
             
             M 112.5 60 L 112.5 140 
             M 112.5 100 L 162.5 100 
             M 162.5 60 L 162.5 140" 
          fill="none" stroke="url(#neon-grad)" stroke-width="16" stroke-linecap="round" stroke-linejoin="round"/>
  </g>

  <path d="M 82.5 60 L 57.5 60 
           A 20 20 0 0 0 37.5 80 
           A 20 20 0 0 0 57.5 100 
           L 67.5 100 
           A 20 20 0 0 1 87.5 120 
           A 20 20 0 0 1 67.5 140 
           L 42.5 140 
           
           M 112.5 60 L 112.5 140 
           M 112.5 100 L 162.5 100 
           M 162.5 60 L 162.5 140" 
        fill="none" stroke="#E0F7FA" stroke-width="4" stroke-linecap="round" stroke-linejoin="round" opacity="0.8"/>
</svg>